<svg xmlns="http://www.w3.org/2000/svg" viewBox="0 0 416.06 141.5"><defs><style>.cls-1{fill:#231f20;}</style></defs><g id="Layer_2" data-name="Layer 2"><g id="Layer_1-2" data-name="Layer 1"><path class="cls-1" d="M92.4,52.87l.09-.15V45l-.93.56a12.35,12.35,0,0,1-2.87,1.19c-1.23.37-2.56.75-4,1.13s-2.94.81-4.35,1.23a25.76,25.76,0,0,0-4,1.57,11.06,11.06,0,0,0-3,2.19,4.43,4.43,0,0,0-1.3,3.2A7.08,7.08,0,0,0,72.5,59a5.71,5.71,0,0,0,3.59,3.16,7.5,7.5,0,0,0,2.29.36,13.5,13.5,0,0,0,7.38-2.44A22.06,22.06,0,0,0,92.4,52.87Zm-14,8.45a6.47,6.47,0,0,1-1.93-.3,4.49,4.49,0,0,1-1.66-.91,4.36,4.36,0,0,1-1.17-1.59,5.76,5.76,0,0,1-.45-2.41,3.27,3.27,0,0,1,1-2.36,9.7,9.7,0,0,1,2.72-1.93,22.93,22.93,0,0,1,3.84-1.49c1.4-.43,2.86-.84,4.32-1.23s2.79-.76,4-1.13a16.66,16.66,0,0,0,2.23-.83v5.24a21,21,0,0,1-6.17,6.71A12.39,12.39,0,0,1,78.38,61.32Z"/><path class="cls-1" d="M85.51,70.57a22.32,22.32,0,0,0,4.08-2.5,37.66,37.66,0,0,0,3.66-3.26A17.54,17.54,0,0,0,94.33,67a12.59,12.59,0,0,0,2.06,2.67,8.78,8.78,0,0,0,6.33,2.53l1.11,0a8.48,8.48,0,0,0,1.62-.28,14.21,14.21,0,0,0,2.08-.73,19.84,19.84,0,0,0,2.64-1.42l.29-.18V59.9l-.91.49a7.21,7.21,0,0,1-2.3.91c-.56.08-.89.12-1,.12a1.71,1.71,0,0,1-1.43-.59,2.29,2.29,0,0,1-.52-1.46V34.58a14.66,14.66,0,0,0-6.54-12.79,20.44,20.44,0,0,0-6.8-3A30.87,30.87,0,0,0,75.43,19a21,21,0,0,0-6.75,3.31,18.21,18.21,0,0,0-5,5.63,18.52,18.52,0,0,0-2.26,8l0,.65H74.6l.07-.53a8.18,8.18,0,0,1,1-3.15,7.32,7.32,0,0,1,1.92-2.16,7.88,7.88,0,0,1,2.54-1.23A12.3,12.3,0,0,1,86,29.36a9.7,9.7,0,0,1,2.69.92,5.79,5.79,0,0,1,1.9,1.59,3.64,3.64,0,0,1,.71,2.31,3,3,0,0,1-1.13,2.38,12.74,12.74,0,0,1-3.35,2,43.42,43.42,0,0,1-4.9,1.78q-2.79.85-5.68,1.79c-1.94.62-3.86,1.33-5.72,2.1a23.87,23.87,0,0,0-5.09,2.83A13.94,13.94,0,0,0,61.73,51a10.15,10.15,0,0,0-1.43,5.44,15.18,15.18,0,0,0,3.81,10.3H60.3v13H73.37V71.84a20,20,0,0,0,3.91.39,23.62,23.62,0,0,0,4.17-.36A16.66,16.66,0,0,0,85.51,70.57Zm-13.36,8H61.53V68h3.8a16.25,16.25,0,0,0,5.34,3.13,14.92,14.92,0,0,0,1.48.46ZM77.28,71a18.52,18.52,0,0,1-3.91-.42V66.76H65.83a13.76,13.76,0,0,1-3.08-4.33,14.32,14.32,0,0,1-1.22-6,8.9,8.9,0,0,1,1.24-4.79,12.83,12.83,0,0,1,3.35-3.6A23.06,23.06,0,0,1,71,45.39c1.83-.76,3.72-1.46,5.63-2.07s3.8-1.21,5.66-1.78a46.5,46.5,0,0,0,5-1.83A14.12,14.12,0,0,0,91,37.48a4.31,4.31,0,0,0,1.53-3.3,5,5,0,0,0-.95-3.06,7.09,7.09,0,0,0-2.31-1.92,10.63,10.63,0,0,0-3-1,13.74,13.74,0,0,0-6.38.14,9.19,9.19,0,0,0-2.93,1.43,8.28,8.28,0,0,0-2.25,2.51,8.92,8.92,0,0,0-1.1,3.09H62.73a16.67,16.67,0,0,1,6.68-12,19.84,19.84,0,0,1,6.36-3.11A29.57,29.57,0,0,1,90.71,20a19.48,19.48,0,0,1,6.39,2.77,14.26,14.26,0,0,1,4.38,4.79,14.18,14.18,0,0,1,1.63,7V59.37a3.47,3.47,0,0,0,.78,2.21,2.87,2.87,0,0,0,2.39,1.07,10.46,10.46,0,0,0,1.13-.14,6.16,6.16,0,0,0,1.82-.58v7A18.56,18.56,0,0,1,107,70.08a12.89,12.89,0,0,1-1.89.67,6.19,6.19,0,0,1-1.37.23l-1.06,0a7.86,7.86,0,0,1-3-.58,7.59,7.59,0,0,1-2.42-1.61,11.25,11.25,0,0,1-1.86-2.4,17.34,17.34,0,0,1-1.33-2.93l-.32-1-.7.73a37.47,37.47,0,0,1-4.19,3.82A20.79,20.79,0,0,1,85,69.46a15.74,15.74,0,0,1-3.77,1.21A23,23,0,0,1,77.28,71Z"/><path class="cls-1" d="M134,52.21,122.32,18.92H108.56L128,71.23h12L159.2,18.92H145.69Zm23.46-32.07L139.12,70H128.84L110.32,20.14h11.13L134,55.9l12.58-35.76Z"/><path class="cls-1" d="M175.74,18.92H162.67V71.23h13.07ZM174.52,70H163.9V20.14h10.62Z"/><path class="cls-1" d="M175.74.05H162.67v13h13.07Zm-1.22,11.79H163.9V1.27h10.62Z"/><path class="cls-1" d="M228.93,71.23V.05h-13V24a17.51,17.51,0,0,0-1.61-1.72,16.9,16.9,0,0,0-3.28-2.4,16,16,0,0,0-3.63-1.46,14.57,14.57,0,0,0-3.72-.49,18.27,18.27,0,0,0-9.05,2.2,20,20,0,0,0-6.55,6,27,27,0,0,0-3.93,8.67,41.31,41.31,0,0,0-1.3,10.47,36.49,36.49,0,0,0,1.48,10.52,26.62,26.62,0,0,0,4.29,8.57,20.72,20.72,0,0,0,6.85,5.79,19.41,19.41,0,0,0,9.12,2.13,15.14,15.14,0,0,0,3.19-.36,15.34,15.34,0,0,0,3.32-1.18,14.84,14.84,0,0,0,3.2-2.15,15,15,0,0,0,1.62-1.66v4.35ZM213.5,67.62a14.39,14.39,0,0,1-2.94,2,13.5,13.5,0,0,1-3,1.08,14,14,0,0,1-2.93.34A18.15,18.15,0,0,1,196,69a19.53,19.53,0,0,1-6.45-5.45,25.48,25.48,0,0,1-4.09-8.19,35,35,0,0,1-1.43-10.16,40.09,40.09,0,0,1,1.26-10.15,25.59,25.59,0,0,1,3.75-8.29,18.57,18.57,0,0,1,6.15-5.59,17,17,0,0,1,8.45-2.05,13.13,13.13,0,0,1,3.41.46A14.34,14.34,0,0,1,210.44,21a15.49,15.49,0,0,1,3,2.21,16.94,16.94,0,0,1,2.54,3l1.12,1.71V1.27h10.57V70H217.14V62.9L216,64.67A13.68,13.68,0,0,1,213.5,67.62Z"/><path class="cls-1" d="M217.14,45.22V44.5a30.52,30.52,0,0,0-.84-6.35,18.78,18.78,0,0,0-2.16-5.27,11.65,11.65,0,0,0-3.48-3.63,9,9,0,0,0-9.6.09,11.65,11.65,0,0,0-3.52,3.78,18.86,18.86,0,0,0-2.13,5.47,30.93,30.93,0,0,0,0,13.27,19.11,19.11,0,0,0,2.13,5.49,11.39,11.39,0,0,0,3.52,3.79,8.75,8.75,0,0,0,4.88,1.41,8.64,8.64,0,0,0,4.86-1.41,11.66,11.66,0,0,0,3.5-3.79,19.1,19.1,0,0,0,2.12-5.49A29.32,29.32,0,0,0,217.14,45.22Zm-1.22,0a28.05,28.05,0,0,1-.69,6.36,17.84,17.84,0,0,1-2,5.15,10.24,10.24,0,0,1-3.12,3.39,7.37,7.37,0,0,1-4.18,1.2,7.52,7.52,0,0,1-4.21-1.2,10.39,10.39,0,0,1-3.14-3.39,17.89,17.89,0,0,1-2-5.14,29.7,29.7,0,0,1,0-12.73,17.46,17.46,0,0,1,2-5.11,10.54,10.54,0,0,1,3.15-3.4,7.43,7.43,0,0,1,4.2-1.23A7.3,7.3,0,0,1,210,30.28a10.29,10.29,0,0,1,3.1,3.25,17.3,17.3,0,0,1,2,4.92,29.26,29.26,0,0,1,.81,6.08Z"/><path class="cls-1" d="M147,91.79a16.88,16.88,0,0,0-5.58-3.93,18.37,18.37,0,0,0-11.26-1,15.87,15.87,0,0,0-4.13,1.54,20,20,0,0,0-4,2.9A24.86,24.86,0,0,0,118.76,95a26.65,26.65,0,0,0-2.65-3.89,13.93,13.93,0,0,0-3.23-2.89,11,11,0,0,0-3.44-1.41,17.48,17.48,0,0,0-3.59-.36A15.53,15.53,0,0,0,99.35,88,18.74,18.74,0,0,0,94,92V87.43H80.9v52.31H94V108.62a9.59,9.59,0,0,1,.81-3.68,13.38,13.38,0,0,1,2.21-3.6,11.54,11.54,0,0,1,3.26-2.67,8,8,0,0,1,4-1,5.8,5.8,0,0,1,2,.37A4.94,4.94,0,0,1,108,99.22a6.88,6.88,0,0,1,1.45,2.34,11,11,0,0,1,.58,3.85v34.33h13.07V108.17A10.19,10.19,0,0,1,124,104a11.22,11.22,0,0,1,2.19-3.36,10.52,10.52,0,0,1,3-2.23,7.35,7.35,0,0,1,5.6-.42,5.38,5.38,0,0,1,2,1.22,6.54,6.54,0,0,1,1.48,2.34,10.67,10.67,0,0,1,.58,3.84v34.33h13V104.91a20.93,20.93,0,0,0-1.24-7.24A17.68,17.68,0,0,0,147,91.79Zm3.58,46.73H140V105.41a12,12,0,0,0-.67-4.29,7.58,7.58,0,0,0-1.78-2.78,6.45,6.45,0,0,0-2.47-1.49,8.52,8.52,0,0,0-6.5.48,11.52,11.52,0,0,0-3.36,2.49,12.62,12.62,0,0,0-2.43,3.71,11.69,11.69,0,0,0-.93,4.64v30.35H111.28V105.41a11.82,11.82,0,0,0-.67-4.29,8.13,8.13,0,0,0-1.71-2.77,6.25,6.25,0,0,0-2.32-1.5,7.05,7.05,0,0,0-2.38-.43,9.15,9.15,0,0,0-4.54,1.18,13,13,0,0,0-3.61,3,14.92,14.92,0,0,0-2.4,3.92,10.84,10.84,0,0,0-.9,4.15v29.9H82.13V88.66H92.75v6.49l1.07-1.23a18.55,18.55,0,0,1,6.05-4.82,14.2,14.2,0,0,1,6-1.45,16.44,16.44,0,0,1,3.34.34,9.64,9.64,0,0,1,3,1.25,12.82,12.82,0,0,1,2.94,2.64,26.83,26.83,0,0,1,3,4.54l.48.87.56-.82a25.14,25.14,0,0,1,3.65-4.26,18.59,18.59,0,0,1,3.79-2.72,15,15,0,0,1,3.81-1.43A17.25,17.25,0,0,1,141,89a15.54,15.54,0,0,1,5.17,3.65,16.25,16.25,0,0,1,3.31,5.46,19.73,19.73,0,0,1,1.17,6.82Z"/><path class="cls-1" d="M193.49,101.59a12.93,12.93,0,0,0-4.08-3.76,11.1,11.1,0,0,0-10.83,0,12.85,12.85,0,0,0-4,3.76,17.27,17.27,0,0,0-2.5,5.49,24.78,24.78,0,0,0-.85,6.61,24.51,24.51,0,0,0,.85,6.58,17.41,17.41,0,0,0,2.49,5.46,12.62,12.62,0,0,0,4,3.74,11.22,11.22,0,0,0,10.82,0,12.63,12.63,0,0,0,4.08-3.74,17.45,17.45,0,0,0,2.55-5.45,24.23,24.23,0,0,0,.88-6.59,24.56,24.56,0,0,0-.88-6.62A17.51,17.51,0,0,0,193.49,101.59Zm1.37,18.35A16.57,16.57,0,0,1,192.5,125a11.66,11.66,0,0,1-3.7,3.38,10,10,0,0,1-9.6,0,11.37,11.37,0,0,1-3.64-3.38,15.9,15.9,0,0,1-2.32-5.08,23.39,23.39,0,0,1-.81-6.26,23.67,23.67,0,0,1,.81-6.29,16.25,16.25,0,0,1,2.32-5.1,11.58,11.58,0,0,1,3.64-3.41,9.84,9.84,0,0,1,9.6,0,11.88,11.88,0,0,1,3.7,3.41,16.41,16.41,0,0,1,2.36,5.1,23,23,0,0,1,.84,6.29A22.53,22.53,0,0,1,194.86,119.94Z"/><path class="cls-1" d="M202.27,94.55a23.15,23.15,0,0,0-7.78-5.93,26.15,26.15,0,0,0-21,0,23,23,0,0,0-7.76,5.93,26.15,26.15,0,0,0-4.78,8.68,34.08,34.08,0,0,0,0,20.89,25.72,25.72,0,0,0,4.81,8.63,22.63,22.63,0,0,0,7.78,5.85,26.68,26.68,0,0,0,20.94,0,22.57,22.57,0,0,0,7.79-5.85,25.7,25.7,0,0,0,4.8-8.63,33.89,33.89,0,0,0,0-20.89A26.43,26.43,0,0,0,202.27,94.55ZM206,123.73a24.65,24.65,0,0,1-4.57,8.23A21.74,21.74,0,0,1,194,137.5a25.54,25.54,0,0,1-19.91,0,21.55,21.55,0,0,1-7.37-5.54,24.5,24.5,0,0,1-4.58-8.23,33,33,0,0,1,0-20.11,24.94,24.94,0,0,1,4.56-8.28,21.55,21.55,0,0,1,7.34-5.61,24.84,24.84,0,0,1,19.9,0,21.79,21.79,0,0,1,7.37,5.61,25,25,0,0,1,4.61,8.28,32.59,32.59,0,0,1,0,20.11Z"/><path class="cls-1" d="M256.28,91.05a15.12,15.12,0,0,0-5.44-3.43,20.57,20.57,0,0,0-7.21-1.19,19,19,0,0,0-7.75,1.68,20.27,20.27,0,0,0-6.09,4.4V87.43H216.72v52.31h13.07V108.82a9.38,9.38,0,0,1,1-4.17,12.63,12.63,0,0,1,2.58-3.6,13.06,13.06,0,0,1,3.71-2.49,10.68,10.68,0,0,1,4.32-.92,6.7,6.7,0,0,1,2.53.48,5.44,5.44,0,0,1,2,1.43,7.18,7.18,0,0,1,1.39,2.35,9.58,9.58,0,0,1,.51,3.26v34.58H260.9V103.25a18.84,18.84,0,0,0-1.2-6.87A15.26,15.26,0,0,0,256.28,91.05Zm3.4,47.47H249.06V105.16a10.76,10.76,0,0,0-.59-3.68,8.33,8.33,0,0,0-1.63-2.75A6.58,6.58,0,0,0,244.36,97a7.88,7.88,0,0,0-3-.57,11.77,11.77,0,0,0-4.82,1,13.87,13.87,0,0,0-6.9,6.66,10.8,10.8,0,0,0-1.09,4.71v29.7H217.94V88.66h10.62v7l1.07-1.22a20.23,20.23,0,0,1,6.75-5.24,17.55,17.55,0,0,1,7.25-1.58,19.36,19.36,0,0,1,6.78,1.12,13.46,13.46,0,0,1,8.15,8,17.78,17.78,0,0,1,1.12,6.43Z"/><path class="cls-1" d="M305,113.66a30.3,30.3,0,0,0-5.87-3.15c-2.12-.87-4.24-1.67-6.26-2.36-1.37-.5-2.69-1-3.95-1.5a25,25,0,0,1-3.31-1.57,9.26,9.26,0,0,1-2.24-1.74,2.68,2.68,0,0,1-.74-1.85,3.12,3.12,0,0,1,1.56-2.72,8.93,8.93,0,0,1,4.95-1.13,12.19,12.19,0,0,1,2.82.31,6.68,6.68,0,0,1,2.31,1,5.41,5.41,0,0,1,1.64,1.83,8.07,8.07,0,0,1,.91,3l.06.53h12.88l0-.64A20.3,20.3,0,0,0,307.94,96a14.89,14.89,0,0,0-4.24-5.39,18.12,18.12,0,0,0-6.41-3.14,32.86,32.86,0,0,0-15.8-.13,18.4,18.4,0,0,0-6.15,2.75,13.19,13.19,0,0,0-5.68,11.26,11.74,11.74,0,0,0,1.73,6.48,16.56,16.56,0,0,0,4.35,4.53,27.78,27.78,0,0,0,5.85,3.18c2.07.85,4.17,1.63,6.25,2.35,1.33.47,2.63.93,3.9,1.4a21,21,0,0,1,3.29,1.53,8.91,8.91,0,0,1,2.23,1.81,3,3,0,0,1,.76,2.06,4.3,4.3,0,0,1-.65,2.46,4.81,4.81,0,0,1-1.8,1.56,9.68,9.68,0,0,1-2.74.87,14.38,14.38,0,0,1-6.47-.21,7,7,0,0,1-2.63-1.5,7.44,7.44,0,0,1-1.85-2.74,11.92,11.92,0,0,1-.76-4.22v-.6H267.89l0,.63a21.73,21.73,0,0,0,1.91,8.67,18.27,18.27,0,0,0,4.65,6.2,19.38,19.38,0,0,0,6.68,3.71,25.51,25.51,0,0,0,7.94,1.23,35.35,35.35,0,0,0,8.27-.94,21.57,21.57,0,0,0,7-3,15.29,15.29,0,0,0,4.86-5.25,15.64,15.64,0,0,0,1.81-7.71,10.14,10.14,0,0,0-1.74-5.91A17.07,17.07,0,0,0,305,113.66ZM308.16,131a14.11,14.11,0,0,1-4.48,4.83,20.49,20.49,0,0,1-6.6,2.8,34.09,34.09,0,0,1-8,.91,24.31,24.31,0,0,1-7.56-1.17,18.51,18.51,0,0,1-6.27-3.47,17.11,17.11,0,0,1-4.33-5.8,20.11,20.11,0,0,1-1.77-7.56h10.76a12.38,12.38,0,0,0,.83,4.07,8.57,8.57,0,0,0,2.16,3.18,8.29,8.29,0,0,0,3.09,1.76,15.59,15.59,0,0,0,7,.25,11.13,11.13,0,0,0,3.08-1,6,6,0,0,0,2.26-2,5.49,5.49,0,0,0,.86-3.15,4.32,4.32,0,0,0-1.05-2.86,10.18,10.18,0,0,0-2.54-2.06,21.33,21.33,0,0,0-3.49-1.63c-1.27-.47-2.58-.94-3.92-1.41-2.06-.7-4.14-1.49-6.2-2.32a26.94,26.94,0,0,1-5.59-3,15.45,15.45,0,0,1-4-4.2,10.56,10.56,0,0,1-1.53-5.82,12,12,0,0,1,5.16-10.26,17.25,17.25,0,0,1,5.74-2.57,31.76,31.76,0,0,1,15.17.12,17.06,17.06,0,0,1,6,2.93,13.62,13.62,0,0,1,3.89,5,18.54,18.54,0,0,1,1.59,6.53H297.9a8.87,8.87,0,0,0-1-2.88,6.48,6.48,0,0,0-2-2.23,8,8,0,0,0-2.72-1.17,13.57,13.57,0,0,0-3.1-.34,10,10,0,0,0-5.63,1.33,4.32,4.32,0,0,0-2.1,3.74,3.87,3.87,0,0,0,1.06,2.67,10.17,10.17,0,0,0,2.53,2,25.62,25.62,0,0,0,3.47,1.64c1.27.51,2.6,1,4,1.52,2,.69,4.1,1.48,6.21,2.35a29,29,0,0,1,5.63,3,16.11,16.11,0,0,1,4,4,9,9,0,0,1,1.52,5.22A14.48,14.48,0,0,1,308.16,131Z"/><path class="cls-1" d="M348.66,101.59a13.15,13.15,0,0,0-4.08-3.76,11.12,11.12,0,0,0-10.84,0,13,13,0,0,0-4,3.76,17.62,17.62,0,0,0-2.5,5.49,24.78,24.78,0,0,0-.85,6.61,24.51,24.51,0,0,0,.85,6.58,17.11,17.11,0,0,0,2.5,5.46,12.48,12.48,0,0,0,4,3.74,11.22,11.22,0,0,0,10.82,0,12.76,12.76,0,0,0,4.09-3.74,17.66,17.66,0,0,0,2.54-5.45,23.85,23.85,0,0,0,.88-6.59,24.17,24.17,0,0,0-.88-6.62A17.72,17.72,0,0,0,348.66,101.59ZM350,119.94a16.82,16.82,0,0,1-2.37,5.09,11.66,11.66,0,0,1-3.7,3.38,10,10,0,0,1-9.6,0,11.37,11.37,0,0,1-3.64-3.38A16.34,16.34,0,0,1,328.4,120a23.39,23.39,0,0,1-.81-6.26,23.67,23.67,0,0,1,.81-6.29,16.25,16.25,0,0,1,2.32-5.1,11.51,11.51,0,0,1,3.65-3.41,9.82,9.82,0,0,1,9.59,0,12,12,0,0,1,3.7,3.41,16.65,16.65,0,0,1,2.37,5.1,23.37,23.37,0,0,1,.83,6.29A22.91,22.91,0,0,1,350,119.94Z"/><path class="cls-1" d="M357.43,94.55a23.15,23.15,0,0,0-7.78-5.93,26.15,26.15,0,0,0-20.95,0,23,23,0,0,0-7.76,5.93,26.25,26.25,0,0,0-4.78,8.68,34.28,34.28,0,0,0,0,20.89,25.72,25.72,0,0,0,4.81,8.63,22.63,22.63,0,0,0,7.78,5.85,26.68,26.68,0,0,0,20.94,0,22.57,22.57,0,0,0,7.79-5.85,25.72,25.72,0,0,0,4.81-8.63,34,34,0,0,0,0-20.89A26.43,26.43,0,0,0,357.43,94.55Zm3.69,29.18a24.47,24.47,0,0,1-4.57,8.23,21.74,21.74,0,0,1-7.37,5.54,25.54,25.54,0,0,1-19.91,0A21.55,21.55,0,0,1,321.9,132a24.5,24.5,0,0,1-4.58-8.23,33,33,0,0,1,0-20.11,24.94,24.94,0,0,1,4.56-8.28,21.43,21.43,0,0,1,7.34-5.61,24.84,24.84,0,0,1,19.9,0,21.93,21.93,0,0,1,7.38,5.61,25.21,25.21,0,0,1,4.6,8.28,32.59,32.59,0,0,1,0,20.11Z"/><path class="cls-1" d="M414.87,96.38A14.75,14.75,0,0,0,406,87.62a20.57,20.57,0,0,0-7.21-1.19A19,19,0,0,0,391,88.11a20.39,20.39,0,0,0-6.09,4.4V87.43H371.88v52.31H385V108.82a9.41,9.41,0,0,1,1-4.17,12.82,12.82,0,0,1,2.58-3.6,13.06,13.06,0,0,1,3.71-2.49,10.68,10.68,0,0,1,4.32-.92,6.7,6.7,0,0,1,2.53.48,5.6,5.6,0,0,1,2,1.43,7.28,7.28,0,0,1,1.38,2.36,9.44,9.44,0,0,1,.51,3.25v34.58h13.07V103.25A19,19,0,0,0,414.87,96.38Zm0,42.14H404.22V105.16a10.72,10.72,0,0,0-.59-3.68A8.33,8.33,0,0,0,402,98.73,6.62,6.62,0,0,0,399.52,97a7.91,7.91,0,0,0-3-.57,11.77,11.77,0,0,0-4.82,1,13.79,13.79,0,0,0-6.89,6.66,10.66,10.66,0,0,0-1.09,4.71v29.7H373.11V88.66h10.62v7l1.07-1.22a20.3,20.3,0,0,1,6.74-5.24,17.58,17.58,0,0,1,7.25-1.58,19.41,19.41,0,0,1,6.79,1.12,13.92,13.92,0,0,1,5,3.14,14.24,14.24,0,0,1,3.15,4.91,18,18,0,0,1,1.11,6.43Z"/><path class="cls-1" d="M51.05,10.43a29.81,29.81,0,0,0-10-7.63A30.49,30.49,0,0,0,27.83,0H0V71.23H9.91c-.26.17-.54.33-.79.51a17.36,17.36,0,0,0-5.27,6.17A18.27,18.27,0,0,0,2,86.34a16.72,16.72,0,0,0,1.81,8A18.65,18.65,0,0,0,8.47,100,27.75,27.75,0,0,0,15,104c2.43,1.05,4.92,2,7.39,2.85s4.87,1.64,7.37,2.44a42.75,42.75,0,0,1,6.33,2.55,14.65,14.65,0,0,1,4.36,3.25,6.31,6.31,0,0,1,1.58,4.36,10.48,10.48,0,0,1-1.13,5.1,9.46,9.46,0,0,1-3,3.32,13,13,0,0,1-4.43,1.87,24.12,24.12,0,0,1-5.36.59,14.22,14.22,0,0,1-5.73-1.13A13.42,13.42,0,0,1,17.89,126a16.16,16.16,0,0,1-3.12-5,20.53,20.53,0,0,1-1.44-6.41l0-.57H0l0,.63a26.72,26.72,0,0,0,2.59,11.22A27.49,27.49,0,0,0,9,134.32a28,28,0,0,0,8.9,5.33,29.22,29.22,0,0,0,10.25,1.85,40.31,40.31,0,0,0,10.78-1.38A25.28,25.28,0,0,0,47.49,136a19.27,19.27,0,0,0,5.7-6.92,21.62,21.62,0,0,0,2-9.65,16.12,16.12,0,0,0-1.8-7.85,18.59,18.59,0,0,0-4.7-5.55,29.63,29.63,0,0,0-6.56-3.9c-2.38-1-4.88-2-7.42-2.88s-5-1.67-7.39-2.46A40.77,40.77,0,0,1,21,94.15a15,15,0,0,1-4.36-3.32,6.55,6.55,0,0,1-1.58-4.49,7.09,7.09,0,0,1,1-3.91,8.44,8.44,0,0,1,2.73-2.62,12.64,12.64,0,0,1,3.9-1.48,18.22,18.22,0,0,1,9.24.28,11,11,0,0,1,3.88,2.26,12.11,12.11,0,0,1,2.79,3.87,16.61,16.61,0,0,1,1.4,5.62l0,.56H53.43l0-.66a39,39,0,0,0-.82-5.41,24.91,24.91,0,0,0-1.88-5.4,23.21,23.21,0,0,0-3.22-4.93,19.89,19.89,0,0,0-4.84-4,22.66,22.66,0,0,0-3-1.49c.37-.16.75-.31,1.11-.48a29.85,29.85,0,0,0,10-7.53,35.18,35.18,0,0,0,6.48-11.34,42.13,42.13,0,0,0,2.32-14.15,42.77,42.77,0,0,0-2.19-13.77A34.49,34.49,0,0,0,51.05,10.43ZM42,71.53a18.55,18.55,0,0,1,4.55,3.79,21.49,21.49,0,0,1,3,4.66,23.77,23.77,0,0,1,1.79,5.14,39.4,39.4,0,0,1,.73,4.57H41.22a17.46,17.46,0,0,0-1.45-5.47A13.35,13.35,0,0,0,36.69,80a12.3,12.3,0,0,0-4.3-2.51,19.53,19.53,0,0,0-9.89-.32,14,14,0,0,0-4.27,1.63,9.62,9.62,0,0,0-3.14,3,8.24,8.24,0,0,0-1.22,4.57,7.83,7.83,0,0,0,1.88,5.3,16.28,16.28,0,0,0,4.71,3.59A42.81,42.81,0,0,0,27,97.94q3.61,1.17,7.37,2.45c2.52.86,5,1.81,7.33,2.84A28.43,28.43,0,0,1,48,107a17.36,17.36,0,0,1,4.39,5.18A15,15,0,0,1,54,119.41a20.48,20.48,0,0,1-1.92,9.11A18.21,18.21,0,0,1,46.75,135a24.25,24.25,0,0,1-8.17,3.93,38.67,38.67,0,0,1-10.45,1.33,28.27,28.27,0,0,1-9.83-1.76,26.9,26.9,0,0,1-8.51-5.11,26.06,26.06,0,0,1-6.08-8.07,25.23,25.23,0,0,1-2.45-10.08h10.9a21.53,21.53,0,0,0,1.47,6.23A17.92,17.92,0,0,0,17,126.8a14.56,14.56,0,0,0,4.92,3.48,15.38,15.38,0,0,0,6.22,1.23,26,26,0,0,0,5.63-.61,14.49,14.49,0,0,0,4.85-2.05A10.76,10.76,0,0,0,42,125.1a11.67,11.67,0,0,0,1.28-5.69,7.55,7.55,0,0,0-1.88-5.17,15.65,15.65,0,0,0-4.73-3.53,43.22,43.22,0,0,0-6.51-2.62c-2.49-.8-5-1.62-7.34-2.43s-4.9-1.79-7.31-2.82a26.52,26.52,0,0,1-6.28-3.75,17.6,17.6,0,0,1-4.39-5.31A15.55,15.55,0,0,1,3.2,86.34a17.1,17.1,0,0,1,1.74-7.88,16.15,16.15,0,0,1,4.9-5.73,20.66,20.66,0,0,1,2.46-1.5H27.83a31.42,31.42,0,0,0,10.06-1.59A22.35,22.35,0,0,1,42,71.53Zm14.1-22.3a34.13,34.13,0,0,1-6.26,11,28.65,28.65,0,0,1-9.61,7.22c-.75.35-1.54.65-2.33.93Q36.95,68,36,67.76a34,34,0,0,0-8.69-1A38.91,38.91,0,0,0,17.15,68,26.89,26.89,0,0,0,12,70H1.24V1.22H27.83A29.25,29.25,0,0,1,40.53,3.9a28.84,28.84,0,0,1,9.59,7.32A33.26,33.26,0,0,1,56.2,22.11a41.5,41.5,0,0,1,2.13,13.38A41,41,0,0,1,56.08,49.23Z"/><path class="cls-1" d="M41.26,16.19A19.28,19.28,0,0,0,34,11.5,26.42,26.42,0,0,0,25,10H11.86V61H25a24,24,0,0,0,9.05-1.68,20,20,0,0,0,7.25-4.94,22.71,22.71,0,0,0,4.74-8,31.82,31.82,0,0,0,1.7-10.79A34.33,34.33,0,0,0,46,24.19,22.07,22.07,0,0,0,41.26,16.19ZM44.91,46a21.82,21.82,0,0,1-4.48,7.57,19,19,0,0,1-6.81,4.64A23,23,0,0,1,25,59.82H13.08V11.21H25a25.19,25.19,0,0,1,8.57,1.44A17.9,17.9,0,0,1,40.38,17a20.88,20.88,0,0,1,4.51,7.56,33.22,33.22,0,0,1,1.64,11A30.7,30.7,0,0,1,44.91,46Z"/><path class="cls-1" d="M60.3,139.74H73.37V87.43H60.3Zm1.23-51.08H72.15v49.86H61.53Z"/></g></g></svg>